{"title":"Ed Sheeran - The.A Team 1080p HD","uid":9410676,"size":158171585,"categoryP":"video","categoryS":"music_videos","magnet":"?xt=urn:btih:0ef0a267b45df59d38035e19f01dc79339cf9484&amp;dn=Ed+Sheeran+-+The.A+Team+1080p+HD&amp;tr=udp%3A%2F%2Ftracker.openbittorrent.com%3A80&amp;tr=udp%3A%2F%2Fopen.demonii.com%3A1337&amp;tr=udp%3A%2F%2Ftracker.coppersurfer.tk%3A6969&amp;tr=udp%3A%2F%2Fexodus.desync.com%3A6969","seeders":1,"leechers":1,"uploader":"tlbslicer","files":5,"time":1388278498,"description":"Screenshots : \n &lt;a href=&quot;\nhttp://s24.postimg.org/mewapch1h/vlcsnap_1.png&quot; rel=&quot;nofollow&quot; target=&quot;_NEW&quot;&gt;\nhttp://s24.postimg.org/mewapch1h/vlcsnap_1.png&lt;/a&gt;\n &lt;a href=&quot;\nhttp://s24.postimg.org/h0xihsrb9/vlcsnap_2.png&quot; rel=&quot;nofollow&quot; target=&quot;_NEW&quot;&gt;\nhttp://s24.postimg.org/h0xihsrb9/vlcsnap_2.png&lt;/a&gt;\n &lt;a href=&quot;\nhttp://s24.postimg.org/jwalonvb9/vlcsnap_3.png&quot; rel=&quot;nofollow&quot; target=&quot;_NEW&quot;&gt;\nhttp://s24.postimg.org/jwalonvb9/vlcsnap_3.png&lt;/a&gt;\n\n\nFormat                                   : MPEG-4\nFormat profile                           : Base Media\nCodec ID                                 : isom\nFile size                                : 147 MiB\nDuration                                 : 4mn 23s\nOverall bit rate mode                    : Variable\nOverall bit rate                         : 4 667 Kbps\nEncoded date                             : UTC 2013-12-27 10:14:07\nTagged date                              : UTC 2013-12-27 10:14:07\nWriting application                      : vlc 2.1.2 stream output\nComment                                  : QuickTime 6.0 or greater\n\nVideo\nID                                       : 2\nFormat                                   : AVC\nFormat/Info                              : Advanced Video Codec\nFormat profile                           : &lt;a class=&quot;__cf_email__&quot; href=&quot;/cdn-cgi/l/email-protection&quot; data-cfemail=&quot;1d507c74735d5129332d&quot;&gt;[email&amp;#160;protected]&lt;/a&gt;&lt;script cf-hash='f9e31' type=&quot;text/javascript&quot;&gt;\n/* &lt;![CDATA[ */!function(){try{var t=&quot;currentScript&quot;in document?document.currentScript:function(){for(var t=document.getElementsByTagName(&quot;script&quot;),e=t.length;e--;)if(t[e].getAttribute(&quot;cf-hash&quot;))return t[e]}();if(t&amp;&amp;t.previousSibling){var e,r,n,i,c=t.previousSibling,a=c.getAttribute(&quot;data-cfemail&quot;);if(a){for(e=&quot;&quot;,r=parseInt(a.substr(0,2),16),n=2;a.length-n;n+=2)i=parseInt(a.substr(n,2),16)^r,e+=String.fromCharCode(i);e=document.createTextNode(e),c.parentNode.replaceChild(e,c)}}}catch(u){}}();/* ]]&gt; */&lt;/script&gt;\nFormat settings, CABAC                   : Yes\nFormat settings, ReFrames                : 4 frames\nCodec ID                                 : avc1\nCodec ID/Info                            : Advanced Video Coding\nDuration                                 : 4mn 23s\nSource duration                          : 4mn 22s\nBit rate                                 : 4 554 Kbps\nWidth                                    : 1 920 pixels\nHeight                                   : 1 088 pixels\nOriginal height                          : 1 080 pixels\nDisplay aspect ratio                     : 16:9\nOriginal display aspect ratio            : 16:9\nFrame rate mode                          : Variable\nFrame rate                               : 42.956 fps\nOriginal frame rate                      : 25.000 fps\nMinimum frame rate                       : 24.914 fps\nMaximum frame rate                       : 1000 000.000 fps\nColor space                              : YUV\nChroma subsampling                       : 4:2:0\nBit depth                                : 8 bits\nScan type                                : MBAFF\nBits/(Pixel*Frame)                       : 0.051\nStream size                              : 143 MiB (97%)\nSource stream size                       : 143 MiB (97%)\nLanguage                                 : English\nEncoded date                             : UTC 2013-12-27 10:14:07\nTagged date                              : UTC 2013-12-27 10:14:07\nmdhd_Duration                            : 263906\n\nAudio\nID                                       : 1\nFormat                                   : AAC\nFormat/Info                              : Advanced Audio Codec\nFormat profile                           : HE-AAC / LC\nCodec ID                                 : 40\nDuration                                 : 4mn 23s\nSource duration                          : 4mn 23s\nBit rate mode                            : Variable\nBit rate                                 : 127 Kbps\nMaximum bit rate                         : 179 Kbps\nChannel(s)                               : 2 channels\nChannel positions                        : Front: L R\nSampling rate                            : 48.0 KHz / 24.0 KHz\nCompression mode                         : Lossy\nStream size                              : 3.99 MiB (3%)\nSource stream size                       : 3.99 MiB (3%)\nLanguage                                 : English\nEncoded date                             : UTC 2013-12-27 10:14:07\nTagged date                              : UTC 2013-12-27 10:14:07\nmdhd_Duration                            : 263899\n\n","torrent":{"xt":"urn:btih:0ef0a267b45df59d38035e19f01dc79339cf9484","amp;dn":"Ed+Sheeran+-+The.A+Team+1080p+HD","amp;tr":["udp%3A%2F%2Ftracker.openbittorrent.com%3A80","udp%3A%2F%2Fopen.demonii.com%3A1337","udp%3A%2F%2Ftracker.coppersurfer.tk%3A6969","udp%3A%2F%2Fexodus.desync.com%3A6969"],"infoHash":"0ef0a267b45df59d38035e19f01dc79339cf9484","infoHashBuffer":{"type":"Buffer","data":[14,240,162,103,180,93,245,157,56,3,94,25,240,29,199,147,57,207,148,132]},"announce":[],"urlList":[]}}